<svg width="30" height="29" viewBox="0 0 30 29" fill="none" xmlns="http://www.w3.org/2000/svg">
<path d="M19.7337 17.2701L19.7141 9.70014L12.1441 9.68049C12.0652 9.66981 11.985 9.67621 11.9088 9.69924C11.8326 9.72226 11.7623 9.76139 11.7025 9.81397C11.6428 9.86655 11.595 9.93135 11.5625 10.004C11.53 10.0766 11.5134 10.1554 11.514 10.235C11.5146 10.3146 11.5322 10.3931 11.5658 10.4653C11.5993 10.5374 11.648 10.6016 11.7085 10.6533C11.769 10.705 11.8399 10.7431 11.9164 10.7651C11.9929 10.787 12.0732 10.7922 12.1519 10.7804L17.8245 10.804L10.3095 18.319C10.2053 18.4232 10.1468 18.5645 10.1468 18.7118C10.1468 18.8592 10.2053 19.0005 10.3095 19.1047C10.4137 19.2088 10.555 19.2674 10.7024 19.2674C10.8497 19.2674 10.991 19.2088 11.0952 19.1047L18.6102 11.5897L18.6337 17.2622C18.6343 17.4097 18.6933 17.5509 18.7979 17.6547C18.9026 17.7586 19.0442 17.8167 19.1916 17.8162C19.339 17.8156 19.4802 17.7566 19.5841 17.652C19.6879 17.5473 19.746 17.4057 19.7455 17.2583L19.7337 17.2701Z" fill="white"/>
</svg>
