<svg width="28" height="28" viewBox="0 0 28 28" fill="none" xmlns="http://www.w3.org/2000/svg">
<path d="M10.1428 5.26384C10.9401 2.9305 14.1641 2.85984 15.1095 5.05184L15.1895 5.26517L16.2655 8.41184C16.5121 9.13348 16.9105 9.79385 17.434 10.3484C17.9575 10.903 18.5939 11.3388 19.3001 11.6265L19.5895 11.7345L22.7361 12.8092C25.0695 13.6065 25.1401 16.8305 22.9495 17.7758L22.7361 17.8558L19.5895 18.9318C18.8676 19.1783 18.207 19.5767 17.6522 20.1002C17.0974 20.6237 16.6613 21.2601 16.3735 21.9665L16.2655 22.2545L15.1908 25.4025C14.3935 27.7358 11.1695 27.8065 10.2255 25.6158L10.1428 25.4025L9.06814 22.2558C8.82171 21.5339 8.4233 20.8733 7.89979 20.3185C7.37629 19.7637 6.73986 19.3277 6.03347 19.0398L5.74547 18.9318L2.59881 17.8572C0.264139 17.0598 0.193473 13.8358 2.38547 12.8918L2.59881 12.8092L5.74547 11.7345C6.46712 11.4879 7.12749 11.0894 7.68204 10.5659C8.23659 10.0424 8.67242 9.40609 8.96014 8.69984L9.06814 8.41184L10.1428 5.26384ZM12.6668 6.12517L11.5921 9.27184C11.2167 10.3722 10.6058 11.3776 9.80219 12.2178C8.99854 13.0581 8.0214 13.7131 6.93881 14.1372L6.60547 14.2585L3.45881 15.3332L6.60547 16.4078C7.70588 16.7833 8.71121 17.3941 9.55147 18.1978C10.3917 19.0014 11.0467 19.9786 11.4708 21.0612L11.5921 21.3945L12.6668 24.5412L13.7415 21.3945C14.117 20.2941 14.7278 19.2888 15.5314 18.4485C16.3351 17.6083 17.3122 16.9533 18.3948 16.5292L18.7281 16.4092L21.8748 15.3332L18.7281 14.2585C17.6277 13.883 16.6224 13.2722 15.7821 12.4686C14.9419 11.6649 14.2869 10.6878 13.8628 9.60517L13.7428 9.27184L12.6668 6.12517ZM23.3335 0.666504C23.5829 0.666504 23.8274 0.736475 24.039 0.868466C24.2507 1.00046 24.4211 1.18917 24.5308 1.41317L24.5948 1.56917L25.0615 2.93717L26.4308 3.40384C26.6808 3.48877 26.8999 3.64599 27.0604 3.85559C27.221 4.06519 27.3157 4.31773 27.3325 4.5812C27.3494 4.84467 27.2876 5.10721 27.1551 5.33555C27.0226 5.5639 26.8253 5.74776 26.5881 5.86384L26.4308 5.92784L25.0628 6.3945L24.5961 7.76384C24.5111 8.01374 24.3537 8.23277 24.144 8.39316C23.9344 8.55355 23.6818 8.64809 23.4183 8.6648C23.1549 8.68151 22.8924 8.61963 22.6641 8.48701C22.4359 8.35439 22.2521 8.15699 22.1361 7.91984L22.0721 7.76384L21.6055 6.39584L20.2361 5.92917C19.9862 5.84424 19.767 5.68702 19.6065 5.47742C19.446 5.26782 19.3513 5.01528 19.3344 4.75181C19.3176 4.48834 19.3793 4.2258 19.5118 3.99745C19.6444 3.76911 19.8417 3.58525 20.0788 3.46917L20.2361 3.40517L21.6041 2.9385L22.0708 1.56917C22.1607 1.30574 22.3308 1.07705 22.5573 0.915169C22.7837 0.753289 23.0551 0.666337 23.3335 0.666504Z" fill="url(#paint0_linear_10_2002)"/>
<defs>
<linearGradient id="paint0_linear_10_2002" x1="14.0641" y1="0.666504" x2="14.0641" y2="27.2073" gradientUnits="userSpaceOnUse">
<stop offset="0.311" stop-color="#9D00C6"/>
<stop offset="1" stop-color="#00FFED"/>
</linearGradient>
</defs>
</svg>
