<svg width="24" height="24" viewBox="0 0 24 24" fill="none" xmlns="http://www.w3.org/2000/svg">
<path d="M5.83781 10.1841C6.02781 10.6741 6.47781 10.9941 7.00781 10.9941C7.53781 10.9941 7.99781 10.6741 8.17781 10.1841L8.88781 8.26414C8.90781 8.19414 8.95781 8.14414 9.02781 8.12414L10.9478 7.41414C11.4378 7.22414 11.7578 6.77414 11.7578 6.24414C11.7578 5.71414 11.4378 5.25414 10.9478 5.07414L9.02781 4.36414C8.99586 4.35211 8.96685 4.33339 8.9427 4.30925C8.91856 4.28511 8.89985 4.25609 8.88781 4.22414L8.17781 2.30414C7.98781 1.81414 7.53781 1.49414 7.00781 1.49414C6.47781 1.49414 6.01781 1.81414 5.83781 2.30414L5.12781 4.22414C5.10781 4.29414 5.05781 4.34414 4.98781 4.36414L3.06781 5.07414C2.57781 5.26414 2.25781 5.71414 2.25781 6.24414C2.25781 6.77414 2.57781 7.23414 3.06781 7.41414L4.98781 8.12414C5.05781 8.15414 5.10781 8.20414 5.12781 8.26414L5.83781 10.1841ZM5.50781 6.71414L4.23781 6.24414L5.50781 5.77414C5.98781 5.59414 6.35781 5.22414 6.53781 4.74414L7.00781 3.47414L7.47781 4.74414C7.65781 5.21414 8.03781 5.59414 8.50781 5.76414L9.77781 6.23414L8.50781 6.70414C8.02781 6.88414 7.65781 7.25414 7.47781 7.73414L7.00781 9.00414L6.53781 7.73414C6.35781 7.26414 5.97781 6.88414 5.50781 6.71414ZM5.25781 22.2441C5.25781 22.6541 5.59781 22.9941 6.00781 22.9941H7.50781L7.49781 23.0041C8.76781 23.0041 9.46781 23.0041 10.1478 22.7241C10.8278 22.4441 11.3178 21.9541 12.2178 21.0541L20.3678 12.9041L20.4138 12.8581C20.9548 12.3081 21.2638 11.9941 21.4578 11.6051C21.8378 10.8451 21.8378 9.94514 21.4578 9.18514C21.2758 8.79214 20.9748 8.49114 20.4398 7.95714L20.3678 7.88514L20.3208 7.83914C19.7708 7.29714 19.4568 6.98914 19.0678 6.79514C18.3078 6.41514 17.4078 6.41514 16.6478 6.79514C16.2548 6.97714 15.9538 7.27814 15.4198 7.81214L15.3478 7.88514L13.8678 9.36514L7.20781 16.0251C6.31781 16.9151 5.81781 17.4151 5.53781 18.0951C5.25781 18.7751 5.25781 19.4751 5.25781 20.7451V22.2441ZM6.76781 21.4941V20.7541C6.76781 19.6341 6.76781 19.0841 6.93781 18.6741C7.10781 18.2641 7.49781 17.8741 8.28781 17.0841L14.4278 10.9441L15.3778 11.8941C15.6678 12.1841 16.1478 12.1841 16.4378 11.8941C16.7278 11.6041 16.7278 11.1241 16.4378 10.8341L15.4878 9.88414L16.4378 8.93414C16.8878 8.48414 17.1578 8.21414 17.3378 8.12414C17.6778 7.95414 18.0878 7.95414 18.4278 8.12414C18.6078 8.21414 18.8778 8.48414 19.3278 8.93414C19.7778 9.38414 20.0478 9.65414 20.1378 9.83414C20.3078 10.1741 20.3078 10.5841 20.1378 10.9241C20.0478 11.1041 19.7778 11.3741 19.3278 11.8241L11.1778 19.9741C10.3378 20.8141 9.97781 21.1641 9.58781 21.3241C9.17781 21.4941 8.61781 21.4941 7.50781 21.4941H6.76781Z" fill="#A3A3A3"/>
</svg>
