<svg width="20" height="20" viewBox="0 0 20 20" fill="none" xmlns="http://www.w3.org/2000/svg">
<path d="M10.0004 1.25C5.16793 1.25 1.25043 5.1675 1.25043 10C1.25043 11.594 1.67593 13.0865 2.41943 14.3725C2.50443 14.519 2.52593 14.6935 2.47943 14.8565L1.42143 18.5775L5.14143 17.5195C5.22201 17.4966 5.30638 17.49 5.38953 17.5003C5.47267 17.5106 5.5529 17.5376 5.62543 17.5795C6.95486 18.3491 8.46434 18.7529 10.0004 18.75C14.8329 18.75 18.7504 14.8325 18.7504 10C18.7504 5.1675 14.8329 1.25 10.0004 1.25ZM0.000433671 10C0.000433671 4.477 4.47743 0 10.0004 0C15.5234 0 20.0004 4.477 20.0004 10C20.0004 15.523 15.5234 20 10.0004 20C8.27543 20 6.65143 19.563 5.23393 18.793L1.11543 19.964C0.455934 20.1515 -0.153066 19.542 0.0344336 18.883L1.20543 14.764C0.411782 13.3017 -0.00251922 11.6638 0.000433671 10ZM6.00043 8.125C6.00043 7.78 6.28043 7.5 6.62543 7.5H13.3754C13.4575 7.5 13.5388 7.51617 13.6146 7.54757C13.6904 7.57898 13.7593 7.62502 13.8174 7.68306C13.8754 7.74109 13.9214 7.80999 13.9529 7.88582C13.9843 7.96165 14.0004 8.04292 14.0004 8.125C14.0004 8.20708 13.9843 8.28835 13.9529 8.36418C13.9214 8.44001 13.8754 8.50891 13.8174 8.56694C13.7593 8.62498 13.6904 8.67102 13.6146 8.70243C13.5388 8.73383 13.4575 8.75 13.3754 8.75H6.62543C6.28043 8.75 6.00043 8.47 6.00043 8.125ZM6.62543 11.25C6.45967 11.25 6.3007 11.3158 6.18349 11.4331C6.06628 11.5503 6.00043 11.7092 6.00043 11.875C6.00043 12.0408 6.06628 12.1997 6.18349 12.3169C6.3007 12.4342 6.45967 12.5 6.62543 12.5H11.3754C11.5412 12.5 11.7002 12.4342 11.8174 12.3169C11.9346 12.1997 12.0004 12.0408 12.0004 11.875C12.0004 11.7092 11.9346 11.5503 11.8174 11.4331C11.7002 11.3158 11.5412 11.25 11.3754 11.25H6.62543Z" fill="white"/>
</svg>
