<svg width="25" height="24" viewBox="0 0 25 24" fill="none" xmlns="http://www.w3.org/2000/svg">
<path d="M13.5 3.002C13.03 3.00067 12.53 3 12 3C7.522 3 5.282 3 3.891 4.391C2.5 5.782 2.5 8.021 2.5 12.5C2.5 16.978 2.5 19.218 3.891 20.609C5.282 22 7.521 22 12 22C16.478 22 18.718 22 20.109 20.609C21.5 19.218 21.5 16.979 21.5 12.5C21.5 11.97 21.4993 11.47 21.498 11" stroke="#A3A3A3" stroke-width="1.5" stroke-linecap="round" stroke-linejoin="round"/>
<path d="M7.5 17.5C9.832 15.058 14.143 14.943 16.5 17.5M19 2L19.258 2.697C19.596 3.611 19.765 4.068 20.098 4.401C20.432 4.735 20.889 4.904 21.803 5.242L22.5 5.5L21.803 5.758C20.889 6.096 20.432 6.265 20.099 6.598C19.765 6.932 19.596 7.389 19.258 8.303L19 9L18.742 8.303C18.404 7.389 18.235 6.932 17.902 6.599C17.568 6.265 17.111 6.096 16.197 5.758L15.5 5.5L16.197 5.242C17.111 4.904 17.568 4.735 17.901 4.402C18.235 4.068 18.404 3.611 18.742 2.697L19 2ZM14.495 10C14.495 11.38 13.375 12.5 11.992 12.5C11.6634 12.5005 11.3378 12.4362 11.0341 12.3108C10.7303 12.1854 10.4542 12.0014 10.2216 11.7692C9.98908 11.537 9.80457 11.2612 9.67868 10.9576C9.5528 10.6541 9.488 10.3286 9.488 10C9.488 8.62 10.608 7.5 11.992 7.5C12.3206 7.49961 12.646 7.56398 12.9496 7.68944C13.2533 7.8149 13.5292 7.99899 13.7617 8.23117C13.9942 8.46336 14.1786 8.73909 14.3044 9.0426C14.4302 9.34611 14.495 9.67144 14.495 10Z" stroke="#A3A3A3" stroke-width="1.5" stroke-linecap="round" stroke-linejoin="round"/>
</svg>
