<?xml version="1.0" encoding="UTF-8" standalone="no"?>
<svg
   width="24"
   height="24"
   viewBox="0 0 24 24"
   fill="none"
   version="1.1"
   id="svg2"
   sodipodi:docname="ic_profile2.svg"
   inkscape:version="1.4.1 (93de688d07, 2025-03-30)"
   xmlns:inkscape="http://www.inkscape.org/namespaces/inkscape"
   xmlns:sodipodi="http://sodipodi.sourceforge.net/DTD/sodipodi-0.dtd"
   xmlns="http://www.w3.org/2000/svg"
   xmlns:svg="http://www.w3.org/2000/svg">
  <sodipodi:namedview
     id="namedview2"
     pagecolor="#505050"
     bordercolor="#ffffff"
     borderopacity="1"
     inkscape:showpageshadow="0"
     inkscape:pageopacity="0"
     inkscape:pagecheckerboard="1"
     inkscape:deskcolor="#505050"
     inkscape:zoom="32"
     inkscape:cx="11.28125"
     inkscape:cy="12.046875"
     inkscape:window-width="1918"
     inkscape:window-height="1040"
     inkscape:window-x="1080"
     inkscape:window-y="546"
     inkscape:window-maximized="1"
     inkscape:current-layer="svg2" />
  <g
     clip-path="url(#clip0_6_1952)"
     id="g2"
     transform="translate(-0.52272535)">
    <mask
       id="path-1-inside-1_6_1952"
       fill="#ffffff">
      <path
         d="m 18.4313,23.5 c 2.2722,0 4.1867,-1.9052 3.3512,-4.0182 -0.5037,-1.2739 -1.2419,-2.4314 -2.1726,-3.4064 -0.9307,-0.975 -2.0356,-1.7485 -3.2516,-2.2761 C 15.1422,13.2716 13.8389,13 12.5227,13 11.2065,13 9.90321,13.2716 8.68719,13.7993 7.47118,14.3269 6.36628,15.1004 5.43559,16.0754 4.50489,17.0504 3.76662,18.2079 3.26293,19.4818 2.42748,21.5948 4.34198,23.5 6.61417,23.5 h 5.90853 z"
         id="path1" />
    </mask>
    <path
       d="m 18.4313,23.5 c 2.2722,0 4.1867,-1.9052 3.3512,-4.0182 -0.5037,-1.2739 -1.2419,-2.4314 -2.1726,-3.4064 -0.9307,-0.975 -2.0356,-1.7485 -3.2516,-2.2761 C 15.1422,13.2716 13.8389,13 12.5227,13 11.2065,13 9.90321,13.2716 8.68719,13.7993 7.47118,14.3269 6.36628,15.1004 5.43559,16.0754 4.50489,17.0504 3.76662,18.2079 3.26293,19.4818 2.42748,21.5948 4.34198,23.5 6.61417,23.5 h 5.90853 z"
       stroke="#a3a3a3"
       stroke-width="2.48182"
       mask="url(#path-1-inside-1_6_1952)"
       id="path2"
       transform="matrix(1,0,0,1.3839968,0,-4.9919582)"
       style="stroke-width:1.95506;stroke-dasharray:none" />
    <circle
       cx="12.522725"
       cy="7.5"
       r="4.9000001"
       stroke="#a3a3a3"
       stroke-width="1.2"
       id="circle2" />
  </g>
  <circle
     cx="12"
     cy="12"
     r="11.463852"
     stroke="#a3a3a3"
     stroke-width="2.61818"
     id="circle2-6"
     style="stroke-width:1.0723;stroke-dasharray:none"
     sodipodi:insensitive="true" />
  <defs
     id="defs2">
    <clipPath
       id="clip0_6_1952">
      <rect
         width="24"
         height="24"
         fill="#ffffff"
         transform="translate(0.5)"
         id="rect2"
         x="0"
         y="0" />
    </clipPath>
  </defs>
</svg>
