<svg width="37" height="37" viewBox="0 0 37 37" fill="none" xmlns="http://www.w3.org/2000/svg">
	<path
		d="M18.1667 0C8.1387 0 0 8.1387 0 18.1667C0 28.1948 8.1387 36.3335 18.1667 36.3335C28.1948 36.3335 36.3335 28.1948 36.3335 18.1667C36.3335 8.1387 28.213 0 18.1667 0ZM15.8959 23.6713C15.8959 24.5433 15.5326 24.8884 14.6061 24.8884H12.2444C11.3179 24.8884 10.9545 24.5433 10.9545 23.6713V12.6622C10.9545 11.7902 11.3179 11.4451 12.2444 11.4451H14.5879C15.5144 11.4451 15.8777 11.7902 15.8777 12.6622V23.6713H15.8959ZM25.4879 23.6713C25.4879 24.5433 25.1246 24.8884 24.1981 24.8884H21.8546C20.9281 24.8884 20.5648 24.5433 20.5648 23.6713V12.6622C20.5648 11.7902 20.9281 11.4451 21.8546 11.4451H24.1981C25.1246 11.4451 25.4879 11.7902 25.4879 12.6622V23.6713Z"
		fill="#A099FF" />
</svg>