<svg width="37" height="37" fill="none" xmlns="http://www.w3.org/2000/svg">
   <path
      d="M18.5 0C8.288 0 0 8.288 0 18.5S8.288 37 18.5 37 37 28.712 37 18.5 28.73 0 18.5 0zm-2.313 24.106c0 .888-.37 1.239-1.313 1.239h-2.405c-.943 0-1.314-.351-1.314-1.24v-11.21c0-.889.37-1.24 1.314-1.24h2.386c.944 0 1.314.351 1.314 1.24v11.21zm9.768 0c0 .888-.37 1.239-1.313 1.239h-2.386c-.944 0-1.314-.351-1.314-1.24v-11.21c0-.889.37-1.24 1.314-1.24h2.386c.943 0 1.313.351 1.313 1.24z"
      fill="#a099ff" />
</svg>