<svg width="25" height="24" viewBox="0 0 25 24" fill="none" xmlns="http://www.w3.org/2000/svg">
<g clip-path="url(#clip0_6_1952)">
<mask id="path-1-inside-1_6_1952" fill="white">
<path d="M18.4313 23.5C20.7035 23.5 22.618 21.5948 21.7825 19.4818C21.2788 18.2079 20.5406 17.0504 19.6099 16.0754C18.6792 15.1004 17.5743 14.3269 16.3583 13.7993C15.1422 13.2716 13.8389 13 12.5227 13C11.2065 13 9.90321 13.2716 8.68719 13.7993C7.47118 14.3269 6.36628 15.1004 5.43559 16.0754C4.50489 17.0504 3.76662 18.2079 3.26293 19.4818C2.42748 21.5948 4.34198 23.5 6.61417 23.5L12.5227 23.5H18.4313Z"/>
</mask>
<path d="M18.4313 23.5C20.7035 23.5 22.618 21.5948 21.7825 19.4818C21.2788 18.2079 20.5406 17.0504 19.6099 16.0754C18.6792 15.1004 17.5743 14.3269 16.3583 13.7993C15.1422 13.2716 13.8389 13 12.5227 13C11.2065 13 9.90321 13.2716 8.68719 13.7993C7.47118 14.3269 6.36628 15.1004 5.43559 16.0754C4.50489 17.0504 3.76662 18.2079 3.26293 19.4818C2.42748 21.5948 4.34198 23.5 6.61417 23.5L12.5227 23.5H18.4313Z" stroke="#A3A3A3" stroke-width="2.48182" mask="url(#path-1-inside-1_6_1952)"/>
<circle cx="12" cy="7.5" r="4.9" stroke="#A3A3A3" stroke-width="1.2"/>
</g>
<defs>
<clipPath id="clip0_6_1952">
<rect width="24" height="24" fill="white" transform="translate(0.5)"/>
</clipPath>
</defs>
</svg>
