<svg width="19" height="19" viewBox="0 0 19 19" fill="none" xmlns="http://www.w3.org/2000/svg">
<path d="M9.10433 16.8231C4.85003 16.8231 1.38558 13.3586 1.38558 9.10433C1.38558 4.85003 4.85003 1.38558 9.10433 1.38558C13.3586 1.38558 16.8231 4.85003 16.8231 9.10433C16.8231 13.3586 13.3586 16.8231 9.10433 16.8231ZM9.10433 1.78141C5.06167 1.78141 1.78141 5.07018 1.78141 9.10433C1.78141 13.1385 5.06167 16.4272 9.10433 16.4272C13.147 16.4272 16.4272 13.1385 16.4272 9.10433C16.4272 5.07018 13.147 1.78141 9.10433 1.78141Z" fill="#C9C9C9" stroke="#C9C9C9" stroke-width="0.791667"/>
<path d="M17.4168 17.6147C17.3657 17.6147 17.3177 17.5971 17.2771 17.5565L15.6938 15.9732C15.6188 15.8982 15.6188 15.7688 15.6938 15.6938C15.7688 15.6188 15.8982 15.6188 15.9732 15.6938L17.5565 17.2771C17.6315 17.3521 17.6315 17.4815 17.5565 17.5565C17.5159 17.5971 17.4679 17.6147 17.4168 17.6147Z" fill="#C9C9C9" stroke="#C9C9C9" stroke-width="0.791667"/>
</svg>
