<svg width="21" height="21" viewBox="0 0 21 21" fill="none" xmlns="http://www.w3.org/2000/svg">
<path d="M19.7253 0.757935L0.518494 7.16177C0.439852 7.18792 0.37103 7.23738 0.321172 7.30359C0.271314 7.36979 0.24278 7.44959 0.239361 7.5324C0.235943 7.6152 0.257802 7.69709 0.302033 7.76717C0.346265 7.83726 0.410776 7.89222 0.486994 7.92477L7.54533 10.9499C7.58231 10.9659 7.62281 10.9721 7.66289 10.9678C7.70296 10.9635 7.74124 10.9489 7.77399 10.9254L14.6935 5.9811C14.9082 5.82944 15.1718 6.0931 15.0202 6.30777L10.0758 13.2273C10.0527 13.26 10.0385 13.2981 10.0344 13.338C10.0303 13.3778 10.0365 13.418 10.0525 13.4548L13.0765 20.5131C13.1089 20.5894 13.1638 20.6539 13.2338 20.6983C13.3038 20.7426 13.3857 20.7646 13.4685 20.7613C13.5513 20.758 13.6311 20.7296 13.6974 20.6798C13.7636 20.6301 13.8132 20.5614 13.8395 20.4828L20.2433 1.27477C20.2674 1.20277 20.271 1.12549 20.2536 1.05159C20.2362 0.977686 20.1985 0.910099 20.1448 0.856415C20.0912 0.802731 20.0236 0.765076 19.9497 0.74768C19.8758 0.730284 19.7973 0.733835 19.7253 0.757935Z" fill="url(#paint0_linear_84_1013)"/>
<defs>
<linearGradient id="paint0_linear_84_1013" x1="10.2517" y1="0.736816" x2="10.2517" y2="20.7616" gradientUnits="userSpaceOnUse">
<stop stop-color="#8916C1"/>
<stop offset="1" stop-color="#01FEED"/>
</linearGradient>
</defs>
</svg>
