<svg width="30" height="26" viewBox="0 0 30 26" fill="none" xmlns="http://www.w3.org/2000/svg">
<path d="M17.9625 2.11261C17.9625 0.816015 16.4135 0.1452 15.4677 1.03172L9.61646 6.51912C9.23195 6.87942 8.72472 7.07985 8.19779 7.07972H4.6292C3.60762 7.07972 2.62789 7.48554 1.90552 8.2079C1.18316 8.93026 0.777344 9.91 0.777344 10.9316V15.0702C0.777344 16.0918 1.18316 17.0715 1.90552 17.7939C2.62789 18.5163 3.60762 18.9221 4.6292 18.9221H8.19897C8.7252 18.9221 9.23246 19.1236 9.61646 19.4827L15.4677 24.9653C16.4147 25.8519 17.9625 25.1811 17.9625 23.8845V2.11261ZM10.8325 7.81572L16.1848 2.79527V23.1994L10.8325 18.1837C10.1186 17.5151 9.17708 17.143 8.19897 17.1431H4.6292C4.07912 17.1431 3.55157 16.9246 3.1626 16.5356C2.77364 16.1467 2.55512 15.6191 2.55512 15.0691V10.9304C2.55512 9.7855 3.48431 8.85631 4.6292 8.85631H8.19779C9.17663 8.85605 10.1187 8.48314 10.8325 7.81335M25.313 2.62935C25.1553 2.46042 24.9379 2.35959 24.7071 2.34822C24.4762 2.33686 24.25 2.41586 24.0765 2.56848C23.9029 2.72109 23.7956 2.93532 23.7773 3.16573C23.759 3.39613 23.8312 3.6246 23.9785 3.80268C26.2178 6.34244 27.4505 9.61376 27.444 12.9997C27.444 16.5233 26.1368 19.7399 23.9785 22.1932C23.8973 22.2802 23.8344 22.3825 23.7935 22.4942C23.7526 22.606 23.7345 22.7248 23.7404 22.8436C23.7462 22.9624 23.7759 23.0789 23.8275 23.186C23.8792 23.2932 23.9519 23.3889 24.0413 23.4674C24.1306 23.546 24.2348 23.6058 24.3477 23.6434C24.4606 23.6809 24.5799 23.6954 24.6985 23.686C24.8171 23.6766 24.9326 23.6435 25.0382 23.5886C25.1437 23.5337 25.2372 23.4582 25.313 23.3665C27.8369 20.5034 29.2271 16.8164 29.2218 12.9997C29.2274 9.1826 27.8372 5.49514 25.313 2.63172M22.5279 6.24653C22.4585 6.1511 22.3709 6.07041 22.2701 6.00917C22.1693 5.94793 22.0573 5.90737 21.9407 5.88985C21.8241 5.87233 21.7051 5.87819 21.5907 5.90711C21.4764 5.93602 21.3689 5.9874 21.2746 6.05826C21.1803 6.12912 21.1011 6.21804 21.0415 6.31983C20.9819 6.42162 20.9432 6.53425 20.9276 6.65117C20.912 6.76808 20.9198 6.88693 20.9505 7.00079C20.9813 7.11466 21.0344 7.22126 21.1068 7.31438C22.3388 8.95345 23.0033 10.9493 22.9996 12.9997C22.9996 15.1331 22.2956 17.1005 21.1068 18.6851C21.0368 18.7784 20.9858 18.8847 20.9569 18.9978C20.9279 19.1109 20.9215 19.2285 20.938 19.3441C20.9545 19.4597 20.9936 19.5708 21.0531 19.6713C21.1125 19.7717 21.1912 19.8595 21.2846 19.9295C21.378 19.9995 21.4843 20.0505 21.5973 20.0795C21.7104 20.1084 21.8281 20.1148 21.9436 20.0983C22.0592 20.0818 22.1704 20.0427 22.2708 19.9832C22.3713 19.9238 22.459 19.8451 22.529 19.7517C23.9918 17.8049 24.781 15.4348 24.7773 12.9997C24.781 10.5646 23.9918 8.19451 22.529 6.24772" fill="#E5E5E5"/>
</svg>
