<svg width="292" height="292" viewBox="0 0 292 292" fill="none" xmlns="http://www.w3.org/2000/svg">
	<path
		d="M84.57 72.37a36.558 36.558 0 0132.029-17.625l62.296 1.28a36.557 36.557 0 0131.278 18.927l30.039 54.591a36.555 36.555 0 01-.751 36.55l-32.258 53.31a36.558 36.558 0 01-32.029 17.625l-62.297-1.281a36.56 36.56 0 01-31.278-18.926L51.56 162.23a36.56 36.56 0 01.752-36.551l32.257-53.31z"
		stroke="url(#prefix__paint2_linear_1_301)" stroke-width="5" fill="#030712" />
	<path
		d="M149.594 43.043a39.499 39.499 0 0138.449 9.05l48.808 45.903a39.497 39.497 0 0111.387 37.823l-15.35 65.221a39.5 39.5 0 01-27.062 28.773l-64.158 19.317a39.502 39.502 0 01-38.449-9.05l-48.807-45.904a39.5 39.5 0 01-11.388-37.823l15.35-65.22a39.5 39.5 0 0127.062-28.774l64.158-19.316z"
		stroke="url(#prefix__paint0_linear_1_301)" stroke-width="5" />
	<path
		d="M108.211 49.996a39.5 39.5 0 0138.871-7.02l63.056 22.657a39.501 39.501 0 0125.514 30.154l11.907 65.937a39.502 39.502 0 01-13.357 37.173l-51.149 43.279a39.5 39.5 0 01-38.871 7.02l-63.056-22.657a39.5 39.5 0 01-25.515-30.154l-11.906-65.936a39.5 39.5 0 0113.357-37.174l51.149-43.279z"
		stroke="url(#prefix__paint1_linear_1_301)" stroke-width="5" />
	<path
		d="M129.9 55.957a34.823 34.823 0 0134.82.387l51.228 30.342a34.823 34.823 0 0117.074 30.349l-.663 59.536a34.822 34.822 0 01-17.746 29.96l-51.891 29.194a34.82 34.82 0 01-34.819-.387l-51.228-30.342A34.823 34.823 0 0159.6 174.647l.663-59.536a34.822 34.822 0 0117.745-29.96L129.9 55.957z"
		stroke="url(#prefix__paint3_linear_1_301)" stroke-width="5" />
	<g fill="#E0E0E0">
		<circle cx="133.858" cy="126.25" r="4.25" />
		<circle cx="146.001" cy="126.25" r="4.25" />
		<circle cx="158.144" cy="126.25" r="4.25" />
		<path
			d="M182.722 177.637a37.643 37.643 0 01-73.838-2.008l13.382-2.261a24.067 24.067 0 0023.081 20.052 24.068 24.068 0 0024.136-18.768l13.239 2.985zM183.644 126.25c0 20.79-16.853 37.643-37.643 37.643-20.789 0-37.643-16.853-37.643-37.643s16.854-37.643 37.643-37.643c20.79 0 37.643 16.853 37.643 37.643zm-61.715 0c0 13.295 10.778 24.072 24.072 24.072 13.295 0 24.072-10.777 24.072-24.072s-10.777-24.072-24.072-24.072c-13.294 0-24.072 10.777-24.072 24.072z" />
		<path d="M183.34 88l-39.767.607 26.41 11.536L183.34 88z" />
	</g>
	<defs id="prefix__defs15">
		<linearGradient id="prefix__paint0_linear_1_301" x1="172.093" y1="33.658" x2="119.17" y2="258.514"
			gradientUnits="userSpaceOnUse">
			<stop offset=".186" stop-color="#FF4B57" id="prefix__stop8" />
			<stop offset="1" stop-color="#00E7FF" id="prefix__stop9" />
		</linearGradient>
		<linearGradient id="prefix__paint1_linear_1_301" x1="110.89" y1="-18.198" x2="195.667" y2="376.729"
			gradientUnits="userSpaceOnUse">
			<stop stop-color="#2808EB" id="prefix__stop10" />
			<stop offset=".631" stop-color="#FF0090" id="prefix__stop11" />
		</linearGradient>
		<linearGradient id="prefix__paint2_linear_1_301" x1="107.955" y1="51.015" x2="221.427" y2="319.657"
			gradientUnits="userSpaceOnUse">
			<stop stop-color="#00D6F4" id="prefix__stop12" />
			<stop offset="1" stop-color="#0AF65F" id="prefix__stop13" />
		</linearGradient>
		<linearGradient id="prefix__paint3_linear_1_301" x1="159.337" y1="49.084" x2="127.497" y2="325.916"
			gradientUnits="userSpaceOnUse">
			<stop stop-color="#F237EF" stop-opacity=".5" id="prefix__stop14" />
			<stop offset="1" stop-color="#00FFED" stop-opacity=".5" id="prefix__stop15" />
		</linearGradient>
	</defs>
</svg>