<?xml version="1.0" encoding="UTF-8" standalone="no"?>
<svg
   width="292"
   height="292"
   viewBox="0 0 292 292"
   fill="none"
   version="1.1"
   id="svg15"
   xmlns="http://www.w3.org/2000/svg"
   xmlns:svg="http://www.w3.org/2000/svg">
  <path
     d="m 149.594,43.0427 c 13.513,-4.0683 28.17,-0.6187 38.449,9.0496 l 48.808,45.9041 c 10.28,9.6686 14.621,24.0866 11.387,37.8226 l -15.35,65.221 c -3.233,13.736 -13.549,24.705 -27.062,28.773 l -64.158,19.317 c -13.512,4.068 -28.169,0.618 -38.449,-9.05 L 54.4116,194.176 C 44.1319,184.508 39.791,170.09 43.0241,156.353 L 58.3745,91.1325 c 3.2331,-13.7366 13.549,-24.705 27.0618,-28.7734 z"
     stroke="url(#paint0_linear_1_301)"
     stroke-width="5"
     id="path1"
     style="stroke:url(#paint0_linear_1_301)" />
  <path
     d="m 108.211,49.9961 c 10.773,-9.1155 25.59,-11.7912 38.871,-7.0193 l 63.056,22.6567 c 13.28,4.7719 23.006,16.2665 25.514,30.1539 l 11.907,65.9366 c 2.507,13.887 -2.584,28.057 -13.357,37.173 l -51.149,43.279 c -10.773,9.116 -25.591,11.791 -38.871,7.02 L 81.1258,226.539 C 67.8451,221.767 58.119,210.272 55.6113,196.385 L 43.7047,130.449 C 41.197,116.561 46.2886,102.391 57.0615,93.2755 Z"
     stroke="url(#paint1_linear_1_301)"
     stroke-width="5"
     id="path2"
     style="stroke:url(#paint1_linear_1_301)" />
  <path
     d="M 84.5692,72.3692 C 91.3309,61.1947 103.54,54.4762 116.599,54.7447 l 62.296,1.2809 c 13.059,0.2685 24.982,7.4831 31.278,18.9262 l 30.039,54.5912 c 6.297,11.443 6.011,25.376 -0.751,36.55 l -32.258,53.31 c -6.761,11.175 -18.971,17.893 -32.029,17.625 l -62.297,-1.281 C 99.8189,235.478 87.8958,228.264 81.5991,216.821 L 51.5601,162.23 C 45.2635,150.787 45.55,136.854 52.3116,125.679 Z"
     stroke="url(#paint2_linear_1_301)"
     stroke-width="5"
     id="path3"
     style="stroke:url(#paint2_linear_1_301)" />
  <path
     d="m 129.9,55.9567 c 10.842,-6.0999 24.116,-5.9522 34.82,0.3877 l 51.228,30.3419 c 10.704,6.3399 17.212,17.9087 17.074,30.3487 l -0.663,59.536 c -0.139,12.439 -6.903,23.86 -17.746,29.96 l -51.891,29.194 c -10.842,6.1 -24.115,5.953 -34.819,-0.387 L 76.6748,204.996 c -10.704,-6.34 -17.2126,-17.909 -17.0741,-30.349 l 0.6628,-59.536 C 60.402,102.672 67.1665,91.2506 78.009,85.1506 Z"
     stroke="url(#paint3_linear_1_301)"
     stroke-width="5"
     id="path4"
     style="stroke:url(#paint3_linear_1_301)" />
  <circle
     cx="133.858"
     cy="126.25"
     r="4.25"
     fill="#E0E0E0"
     id="circle4"
     style="fill:#0e0e0e;fill-opacity:1" />
  <circle
     cx="146.00101"
     cy="126.25"
     r="4.25"
     fill="#E0E0E0"
     id="circle5"
     style="fill:#0e0e0e;fill-opacity:1" />
  <circle
     cx="158.144"
     cy="126.25"
     r="4.25"
     fill="#E0E0E0"
     id="circle6"
     style="fill:#0e0e0e;fill-opacity:1" />
  <path
     d="m 182.722,177.637 c -1.918,8.507 -6.73,16.084 -13.614,21.437 -6.884,5.352 -15.413,8.149 -24.13,7.912 -8.717,-0.237 -17.082,-3.493 -23.664,-9.212 -6.583,-5.719 -10.977,-13.546 -12.43,-22.145 l 13.382,-2.261 c 0.929,5.499 3.738,10.504 7.948,14.161 4.209,3.657 9.558,5.74 15.133,5.891 5.574,0.152 11.028,-1.637 15.43,-5.06 4.403,-3.423 7.48,-8.268 8.706,-13.708 z"
     fill="#E0E0E0"
     id="path6"
     style="fill:#0e0e0e;fill-opacity:1" />
  <path
     d="m 183.644,126.25 c 0,20.79 -16.853,37.643 -37.643,37.643 -20.789,0 -37.643,-16.853 -37.643,-37.643 0,-20.79 16.854,-37.6429 37.643,-37.6429 20.79,0 37.643,16.8529 37.643,37.6429 z m -61.715,0 c 0,13.295 10.778,24.072 24.072,24.072 13.295,0 24.072,-10.777 24.072,-24.072 0,-13.295 -10.777,-24.072 -24.072,-24.072 -13.294,0 -24.072,10.777 -24.072,24.072 z"
     fill="#E0E0E0"
     id="path7"
     style="fill:#0e0e0e;fill-opacity:1" />
  <path
     d="m 183.34,88 -39.767,0.6071 26.41,11.5359 z"
     fill="#E0E0E0"
     id="path8"
     style="fill:#0e0e0e;fill-opacity:1" />
  <defs
     id="defs15">
    <linearGradient
       id="paint0_linear_1_301"
       x1="172.093"
       y1="33.658199"
       x2="119.17"
       y2="258.51401"
       gradientUnits="userSpaceOnUse">
      <stop
         offset="0.186"
         stop-color="#FF4B57"
         id="stop8" />
      <stop
         offset="1"
         stop-color="#00E7FF"
         id="stop9" />
    </linearGradient>
    <linearGradient
       id="paint1_linear_1_301"
       x1="110.89"
       y1="-18.198"
       x2="195.66701"
       y2="376.729"
       gradientUnits="userSpaceOnUse">
      <stop
         stop-color="#2808EB"
         id="stop10" />
      <stop
         offset="0.631"
         stop-color="#FF0090"
         id="stop11" />
    </linearGradient>
    <linearGradient
       id="paint2_linear_1_301"
       x1="107.955"
       y1="51.015301"
       x2="221.427"
       y2="319.65701"
       gradientUnits="userSpaceOnUse">
      <stop
         stop-color="#00D6F4"
         id="stop12" />
      <stop
         offset="1"
         stop-color="#0AF65F"
         id="stop13" />
    </linearGradient>
    <linearGradient
       id="paint3_linear_1_301"
       x1="159.33701"
       y1="49.083801"
       x2="127.497"
       y2="325.91599"
       gradientUnits="userSpaceOnUse">
      <stop
         stop-color="#F237EF"
         stop-opacity="0.5"
         id="stop14" />
      <stop
         offset="1"
         stop-color="#00FFED"
         stop-opacity="0.5"
         id="stop15" />
    </linearGradient>
  </defs>
</svg>
