<svg width="27" height="27" viewBox="0 0 27 27" fill="none" xmlns="http://www.w3.org/2000/svg">
<rect width="27" height="27" rx="7.10526" fill="#D8B902"/>
<path d="M8.3942 21.15C8.267 21.15 8.1602 21.1068 8.0738 21.0204C7.9874 20.934 7.9442 20.8269 7.9442 20.6991C7.9442 20.5713 7.9874 20.4645 8.0738 20.3787C8.1602 20.2929 8.267 20.25 8.3942 20.25H18.6056C18.7334 20.25 18.8402 20.2932 18.926 20.3796C19.0118 20.466 19.055 20.5731 19.0556 20.7009C19.0562 20.8287 19.013 20.9355 18.926 21.0213C18.839 21.1071 18.7322 21.15 18.6056 21.15H8.3942ZM9.0935 18.5544C8.7395 18.5544 8.4311 18.4434 8.1683 18.2214C7.9055 17.9994 7.7369 17.7174 7.6625 17.3754L6.5879 11.6775C6.5579 11.6895 6.5243 11.6961 6.4871 11.6973C6.4493 11.6991 6.4154 11.7 6.3854 11.7C6.1028 11.7 5.8679 11.604 5.6807 11.412C5.4935 11.22 5.3999 10.9872 5.3999 10.7136C5.3999 10.4298 5.4938 10.1886 5.6816 9.99C5.8688 9.792 6.104 9.693 6.3872 9.693C6.6704 9.693 6.9113 9.792 7.1099 9.99C7.3079 10.1886 7.4069 10.4298 7.4069 10.7136C7.4069 10.776 7.4045 10.8339 7.3997 10.8873C7.3949 10.9407 7.3772 10.9935 7.3466 11.0457L9.8306 12.0456C9.9458 12.0918 10.0613 12.0978 10.1771 12.0636C10.2923 12.0288 10.3901 11.9595 10.4705 11.8557L12.9023 8.5617C12.7721 8.4765 12.6689 8.3637 12.5927 8.2233C12.5165 8.0835 12.4784 7.9326 12.4784 7.7706C12.4784 7.4874 12.5777 7.2465 12.7763 7.0479C12.9743 6.8493 13.2152 6.75 13.499 6.75C13.7822 6.75 14.0234 6.849 14.2226 7.047C14.4218 7.245 14.5214 7.485 14.5214 7.767C14.5214 7.9374 14.4833 8.091 14.4071 8.2278C14.3309 8.3658 14.2277 8.4771 14.0975 8.5617L16.5293 11.8557C16.6097 11.9595 16.7075 12.0285 16.8227 12.0627C16.9385 12.0981 17.054 12.0927 17.1692 12.0465L19.6532 11.0457C19.637 10.9977 19.6229 10.9452 19.6109 10.8882C19.5989 10.8306 19.5929 10.7724 19.5929 10.7136C19.5929 10.4298 19.6865 10.1886 19.8737 9.99C20.0609 9.792 20.2961 9.693 20.5793 9.693C20.8625 9.693 21.1034 9.792 21.302 9.99C21.5006 10.1886 21.5999 10.4298 21.5999 10.7136C21.5999 10.986 21.5003 11.2185 21.3011 11.4111C21.1019 11.6037 20.8601 11.7 20.5757 11.7C20.5529 11.7 20.5271 11.6964 20.4983 11.6892C20.4695 11.682 20.4377 11.6781 20.4029 11.6775L19.3373 17.3745C19.2623 17.7177 19.0937 18 18.8315 18.2214C18.5693 18.4428 18.2609 18.5538 17.9063 18.5544H9.0935Z" fill="black"/>
</svg>
