<svg width="26" height="26" viewBox="0 0 26 26" fill="none" xmlns="http://www.w3.org/2000/svg">
<path d="M17.6312 4.24111C17.6312 3.81482 17.2856 3.46924 16.8593 3.46924C16.433 3.46924 16.0874 3.81482 16.0874 4.24111V21.7586C16.0874 22.1849 16.433 22.5305 16.8593 22.5305C17.2856 22.5305 17.6312 22.1849 17.6312 21.7586V4.24111Z" fill="#A099FF"/>
<path d="M5.28115 5.78516C5.70744 5.78516 6.05303 6.13074 6.05303 6.55703V19.4433C6.05303 19.8696 5.70744 20.2152 5.28115 20.2152C4.85486 20.2152 4.50928 19.8696 4.50928 19.4433V6.55703C4.50928 6.13074 4.85486 5.78516 5.28115 5.78516Z" fill="#A099FF"/>
<path d="M1.42178 9.64453C1.84807 9.64453 2.19365 9.99011 2.19365 10.4164V15.5839C2.19365 16.0102 1.84807 16.3558 1.42178 16.3558C0.995482 16.3558 0.649902 16.0102 0.649902 15.5839V10.4164C0.649902 9.99011 0.995482 9.64453 1.42178 9.64453Z" fill="#A099FF"/>
<path d="M9.9124 9.64443C9.9124 9.21814 9.56683 8.87256 9.14053 8.87256C8.71422 8.87256 8.36865 9.21814 8.36865 9.64443V16.3557C8.36865 16.782 8.71422 17.1276 9.14053 17.1276C9.56683 17.1276 9.9124 16.782 9.9124 16.3557V9.64443Z" fill="#A099FF"/>
<path d="M12.9999 7.32861C13.4262 7.32861 13.7718 7.6742 13.7718 8.10049V17.8992C13.7718 18.3255 13.4262 18.6711 12.9999 18.6711C12.5736 18.6711 12.228 18.3255 12.228 17.8992V8.10049C12.228 7.6742 12.5736 7.32861 12.9999 7.32861Z" fill="#A099FF"/>
<path d="M20.7187 7.32861C21.145 7.32861 21.4905 7.6742 21.4905 8.10049V17.8992C21.4905 18.3255 21.145 18.6711 20.7187 18.6711C20.2923 18.6711 19.9468 18.3255 19.9468 17.8992V8.10049C19.9468 7.6742 20.2923 7.32861 20.7187 7.32861Z" fill="#A099FF"/>
<path d="M25.3499 8.87246C25.3499 8.44617 25.0043 8.10059 24.578 8.10059C24.1517 8.10059 23.8062 8.44617 23.8062 8.87246V17.1275C23.8062 17.5538 24.1517 17.8993 24.578 17.8993C25.0043 17.8993 25.3499 17.5538 25.3499 17.1275V8.87246Z" fill="#A099FF"/>
</svg>
