<svg width="166" height="40" viewBox="0 0 166 40" fill="none" xmlns="http://www.w3.org/2000/svg">
<path d="M19.9993 6.6665V33.3332M13.3327 14.9998V24.9998M33.3327 16.6665V23.3332M6.66602 16.6665V23.3332M26.666 11.6665V28.3332" stroke="#B2B2B2" stroke-width="2.5" stroke-linecap="round" stroke-linejoin="round"/>
<path d="M54.6654 6.6665V33.3332M47.9987 14.9998V24.9998M67.9987 16.6665V23.3332M41.332 16.6665V23.3332M61.332 11.6665V28.3332" stroke="#B2B2B2" stroke-width="2.5" stroke-linecap="round" stroke-linejoin="round"/>
<path d="M145.333 11.6665V27.3332M138.667 14.9998V24.9998M158.667 16.6665V23.3332M132 16.6665V23.3332M152 11.6665V28.3332" stroke="#B2B2B2" stroke-width="2.5" stroke-linecap="round" stroke-linejoin="round"/>
<path d="M89.3333 16.6665V23.3332M82.6667 14.9998V24.9998M102.667 16.6665V23.3332M76 16.6665V23.3332M96 11.6665V28.3332" stroke="#B2B2B2" stroke-width="2.5" stroke-linecap="round" stroke-linejoin="round"/>
<g clip-path="url(#clip0_719_12131)">
<path d="M124.001 6.6665V33.3332M117.335 14.9998V24.9998M110.668 16.6665V23.3332" stroke="#B2B2B2" stroke-width="2.5" stroke-linecap="round" stroke-linejoin="round"/>
</g>
<defs>
<clipPath id="clip0_719_12131">
<rect width="16" height="40" fill="white" transform="translate(109.334)"/>
</clipPath>
</defs>
</svg>
