<svg width="16" height="17" viewBox="0 0 16 17" fill="none" xmlns="http://www.w3.org/2000/svg">
<path d="M8.375 6.64166V4.16229L10.3069 5.32104C10.3491 5.34818 10.3963 5.36656 10.4458 5.3751C10.4953 5.38365 10.5459 5.38217 10.5948 5.37077C10.6437 5.35937 10.6898 5.33828 10.7304 5.30873C10.7709 5.27919 10.8052 5.2418 10.831 5.19879C10.8569 5.15577 10.8738 5.108 10.8809 5.05831C10.888 5.00862 10.885 4.95801 10.8721 4.9095C10.8593 4.86098 10.8368 4.81554 10.806 4.77587C10.7753 4.7362 10.7369 4.7031 10.6931 4.67854L8.72875 3.49979L10.6931 2.32166C10.7784 2.27044 10.8399 2.18744 10.8639 2.09092C10.888 1.9944 10.8728 1.89226 10.8216 1.80698C10.7703 1.72169 10.6873 1.66025 10.5908 1.63616C10.4943 1.61208 10.3922 1.62732 10.3069 1.67854L8 3.06229L5.69313 1.67854C5.60784 1.62732 5.50571 1.61208 5.40918 1.63616C5.31266 1.66025 5.22966 1.72169 5.17844 1.80698C5.12722 1.89226 5.11198 1.9944 5.13606 2.09092C5.16015 2.18744 5.2216 2.27044 5.30688 2.32166L7.27125 3.49979L5.30688 4.67854C5.26311 4.7031 5.22471 4.7362 5.19397 4.77587C5.16322 4.81554 5.14075 4.86098 5.12789 4.9095C5.11503 4.95801 5.11204 5.00862 5.1191 5.05831C5.12616 5.108 5.14312 5.15577 5.16898 5.19879C5.19484 5.2418 5.22907 5.27919 5.26965 5.30873C5.31023 5.33828 5.35632 5.35937 5.4052 5.37077C5.45408 5.38217 5.50475 5.38365 5.55421 5.3751C5.60367 5.36656 5.65091 5.34818 5.69313 5.32104L7.625 4.16229V6.64166C6.50132 6.73833 5.45839 7.26522 4.71384 8.11236C3.96929 8.9595 3.58065 10.0614 3.62903 11.1882C3.67741 12.315 4.15907 13.3796 4.97349 14.1598C5.78791 14.94 6.87217 15.3756 8 15.3756C9.12783 15.3756 10.2121 14.94 11.0265 14.1598C11.8409 13.3796 12.3226 12.315 12.371 11.1882C12.4194 10.0614 12.0307 8.9595 11.2862 8.11236C10.5416 7.26522 9.49868 6.73833 8.375 6.64166ZM8 14.6248C7.28305 14.6248 6.58219 14.4122 5.98606 14.0139C5.38993 13.6155 4.92531 13.0494 4.65094 12.387C4.37657 11.7246 4.30479 10.9958 4.44466 10.2926C4.58453 9.58941 4.92978 8.94349 5.43674 8.43653C5.94371 7.92956 6.58962 7.58431 7.2928 7.44444C7.99598 7.30457 8.72485 7.37636 9.38723 7.65072C10.0496 7.92509 10.6158 8.38972 11.0141 8.98585C11.4124 9.58197 11.625 10.2828 11.625 10.9998C11.6238 11.9608 11.2416 12.8822 10.562 13.5618C9.88242 14.2413 8.96106 14.6236 8 14.6248Z" fill="#E5E5E5"/>
</svg>
