<svg width="24" height="24" viewBox="0 0 24 24" fill="none" xmlns="http://www.w3.org/2000/svg">
<path d="M21.5 12H19.389M19.389 12C19.389 13.9598 18.611 15.8389 17.2252 17.2247C15.8394 18.6105 13.9598 19.389 12 19.389M19.389 12C19.389 10.0402 18.611 8.16013 17.2252 6.77433C15.8394 5.38853 13.9598 4.611 12 4.611M12 2.5V4.611M12 4.611C10.0403 4.611 8.16089 5.38848 6.77519 6.77419C5.38948 8.15989 4.611 10.0393 4.611 11.999C4.611 13.9587 5.38948 15.8381 6.77519 17.2238C8.16089 18.6095 10.0403 19.389 12 19.389M2.5 12H4.611M12 21.5V19.389" stroke="#47C8FC" stroke-width="1.5" stroke-miterlimit="10" stroke-linecap="round"/>
<path d="M12.0001 16.2218C13.1198 16.2218 14.1937 15.777 14.9855 14.9852C15.7773 14.1935 16.2221 13.1196 16.2221 11.9998C16.2221 10.8801 15.7773 9.80621 14.9855 9.01443C14.1937 8.22265 13.1198 7.77783 12.0001 7.77783C10.8803 7.77783 9.80645 8.22265 9.01467 9.01443C8.22289 9.80621 7.77808 10.8801 7.77808 11.9998C7.77808 13.1196 8.22289 14.1935 9.01467 14.9852C9.80645 15.777 10.8803 16.2218 12.0001 16.2218Z" stroke="#47C8FC" stroke-width="1.5" stroke-miterlimit="10" stroke-linecap="round"/>
</svg>
