<svg width="24" height="24" viewBox="0 0 24 24" fill="none" xmlns="http://www.w3.org/2000/svg">
<path d="M11 14H13V7H11V14ZM14 12.5H16V8H14V12.5ZM8 12H10V8H8V12ZM6 22V17.7C5.05 16.8333 4.31267 15.821 3.788 14.663C3.26333 13.505 3.00067 12.284 3 11C3 8.5 3.875 6.375 5.625 4.625C7.375 2.875 9.5 2 12 2C14.0833 2 15.9293 2.61267 17.538 3.838C19.1467 5.06333 20.1923 6.659 20.675 8.625L21.975 13.75C22.0583 14.0667 22 14.3543 21.8 14.613C21.6 14.8717 21.3333 15.0007 21 15H19V18C19 18.55 18.8043 19.021 18.413 19.413C18.0217 19.805 17.5507 20.0007 17 20H15V22H13V18H17V13H19.7L18.75 9.125C18.3667 7.60833 17.55 6.375 16.3 5.425C15.05 4.475 13.6167 4 12 4C10.0667 4 8.41667 4.675 7.05 6.025C5.68333 7.375 5 9.01667 5 10.95C5 11.95 5.20433 12.9 5.613 13.8C6.02167 14.7 6.60067 15.5 7.35 16.2L8 16.8V22H6Z" fill="#47C8FC"/>
</svg>
