<svg width="24" height="24" viewBox="0 0 24 24" fill="none" xmlns="http://www.w3.org/2000/svg">
<path fill-rule="evenodd" clip-rule="evenodd" d="M5.708 13.35C6.333 11.43 7.458 8.97101 9.465 6.96401C13.399 3.03001 19.117 2.44901 19.262 2.43401C19.4459 2.415 19.6316 2.44737 19.7982 2.52752C19.9649 2.60766 20.106 2.73245 20.206 2.88801C20.414 3.20101 21.586 5.17101 20.015 7.55101C19.9329 7.67329 19.8406 7.78837 19.739 7.89501C19.7522 8.01913 19.742 8.14463 19.709 8.26501C19.519 8.95401 19.275 9.67701 18.959 10.4C18.408 11.663 17.631 12.94 16.536 14.036C14.486 16.086 11.794 17.027 9.692 17.466C8.74181 17.6639 7.7781 17.7903 6.809 17.844C6.778 18.09 6.5 20.57 6.5 21C6.5 21.2652 6.39464 21.5196 6.20711 21.7071C6.01957 21.8947 5.76522 22 5.5 22C5.23478 22 4.98043 21.8947 4.79289 21.7071C4.60536 21.5196 4.5 21.2652 4.5 21C4.5 20.429 4.616 19.33 4.721 18.44C4.926 16.708 5.167 15.013 5.708 13.35ZM18.345 6.45001C18.872 5.65001 18.865 4.97001 18.76 4.53001C17.233 4.80501 13.541 5.71601 10.879 8.37901C9.175 10.082 8.179 12.219 7.61 13.969C7.41263 14.5765 7.24773 15.194 7.116 15.819C7.84424 15.7623 8.56808 15.6588 9.283 15.509C11.203 15.107 13.462 14.281 15.121 12.621C15.971 11.771 16.605 10.764 17.075 9.71601C16.099 10.236 15.057 10.702 14.316 10.949C14.0643 11.0328 13.7896 11.0132 13.5524 10.8945C13.3152 10.7758 13.1348 10.5677 13.051 10.316C12.9672 10.0643 12.9868 9.78964 13.1055 9.55241C13.2242 9.31518 13.4323 9.13482 13.684 9.05101C14.358 8.82601 15.442 8.33801 16.438 7.78601C16.932 7.51201 17.384 7.23301 17.739 6.97801C18.123 6.70201 18.299 6.51901 18.345 6.45001Z" fill="#E5E5E5"/>
</svg>
