<svg width="24" height="24" viewBox="0 0 24 24" fill="none" xmlns="http://www.w3.org/2000/svg">
<path d="M19.0115 8.48086L18.7879 8.99539C18.7529 9.07918 18.6939 9.15075 18.6184 9.20109C18.5429 9.25143 18.4541 9.2783 18.3633 9.2783C18.2725 9.2783 18.1838 9.25143 18.1082 9.20109C18.0327 9.15075 17.9737 9.07918 17.9388 8.99539L17.7151 8.48086C17.322 7.57062 16.6019 6.84082 15.697 6.43544L15.007 6.12727C14.9233 6.08876 14.8524 6.02706 14.8027 5.94948C14.753 5.8719 14.7266 5.78169 14.7266 5.68955C14.7266 5.59741 14.753 5.5072 14.8027 5.42962C14.8524 5.35204 14.9233 5.29033 15.007 5.25183L15.6588 4.96183C16.5864 4.54491 17.3188 3.78811 17.7051 2.84733L17.9361 2.29189C17.9698 2.20585 18.0288 2.13198 18.1051 2.07991C18.1815 2.02785 18.2718 2 18.3642 2C18.4567 2 18.547 2.02785 18.6233 2.07991C18.6997 2.13198 18.7586 2.20585 18.7924 2.29189L19.0224 2.84642C19.4083 3.78738 20.1404 4.54451 21.0678 4.96183L21.7205 5.25274C21.804 5.29135 21.8746 5.35305 21.9242 5.43053C21.9737 5.50801 22 5.59805 22 5.69C22 5.78196 21.9737 5.87199 21.9242 5.94948C21.8746 6.02696 21.804 6.08865 21.7205 6.12727L21.0296 6.43453C20.1249 6.84031 19.4052 7.57044 19.0124 8.48086M7.90898 7.45542H6.09083V18.3643H7.90898V7.45542ZM3.81815 11.0917H2V14.728H3.81815V11.0917ZM11.9998 3.81913H10.1817V22.0006H11.9998V3.81913ZM16.0906 9.27357H14.2725V18.3643H16.0906V9.27357ZM20.1815 11.0917H18.3633V14.728H20.1815V11.0917Z" fill="#47C8FC"/>
</svg>
