<svg width="24" height="24" viewBox="0 0 24 24" fill="none" xmlns="http://www.w3.org/2000/svg">
<path d="M21 12.0001V6.71913C21 4.52913 21 3.43413 20.293 2.83513C19.586 2.23513 18.505 2.41513 16.343 2.77613L15.288 2.95213C13.648 3.22513 12.828 3.36213 12 3.36213C11.172 3.36213 10.352 3.22513 8.712 2.95213L7.658 2.77613C5.496 2.41613 4.415 2.23613 3.708 2.83513C3.001 3.43413 3 4.52913 3 6.71913V12.0001C3 17.4901 7.239 20.1551 9.899 21.2861C10.62 21.5931 10.981 21.7461 12 21.7461C13.02 21.7461 13.38 21.5931 14.101 21.2861C16.761 20.1551 21 17.4901 21 12.0001Z" stroke="#47C8FC" stroke-width="1.5"/>
<path d="M6.5 9C6.791 8.417 7.577 8 8.5 8C9.423 8 10.209 8.417 10.5 9M13.5 9C13.791 8.417 14.577 8 15.5 8C16.423 8 17.209 8.417 17.5 9M8.5 15C8.5 15 9.55 14 12 14C14.45 14 15.5 15 15.5 15" stroke="#47C8FC" stroke-width="1.5" stroke-linecap="round"/>
</svg>
