<svg width="39" height="39" viewBox="0 0 39 39" fill="none" xmlns="http://www.w3.org/2000/svg">
<path fill-rule="evenodd" clip-rule="evenodd" d="M5.28125 35.75C5.28125 35.4268 5.40965 35.1168 5.63821 34.8882C5.86677 34.6597 6.17677 34.5312 6.5 34.5312H32.5C32.8232 34.5312 33.1332 34.6597 33.3618 34.8882C33.5903 35.1168 33.7188 35.4268 33.7188 35.75C33.7188 36.0732 33.5903 36.3832 33.3618 36.6118C33.1332 36.8403 32.8232 36.9688 32.5 36.9688H6.5C6.17677 36.9688 5.86677 36.8403 5.63821 36.6118C5.40965 36.3832 5.28125 36.0732 5.28125 35.75Z" fill="url(#paint0_linear_44_467)"/>
<path d="M18.7197 24.2594L28.3348 14.6443C26.7164 13.9702 25.247 12.9834 24.0107 11.7404C22.7669 10.5038 21.7795 9.03375 21.1052 7.41466L11.4884 17.0298C10.7377 17.7805 10.3623 18.1543 10.0405 18.5687C9.65939 19.0563 9.33298 19.5844 9.06716 20.1433C8.84129 20.6162 8.67391 21.1199 8.33754 22.1258L6.56954 27.4347C6.4884 27.6775 6.47654 27.9382 6.53529 28.1874C6.59404 28.4367 6.72108 28.6646 6.90214 28.8457C7.08321 29.0268 7.31114 29.1538 7.56038 29.2125C7.80962 29.2713 8.07029 29.2594 8.31316 29.1783L13.6204 27.4103C14.6279 27.0739 15.1317 26.9065 15.6045 26.679C16.1657 26.4125 16.6906 26.0886 17.1792 25.7073C17.5935 25.3839 17.9673 25.0085 18.718 24.2594M31.003 11.976C31.4777 11.5012 31.8543 10.9376 32.1111 10.3172C32.368 9.69691 32.5002 9.03206 32.5001 8.36065C32.5 7.68924 32.3677 7.02442 32.1107 6.40415C31.8537 5.78388 31.477 5.22031 31.0022 4.7456C30.5274 4.2709 29.9638 3.89436 29.3434 3.6375C28.7231 3.38063 28.0582 3.24846 27.3868 3.24854C26.7154 3.24861 26.0506 3.38093 25.4303 3.63794C24.8101 3.89494 24.2465 4.2716 23.7718 4.74641L22.618 5.90016L22.6684 6.04641C23.0909 7.26354 23.8888 8.86091 25.3887 10.3608C26.6397 11.6192 28.1679 12.5675 29.8509 13.1298L31.003 11.976Z" fill="url(#paint1_linear_44_467)"/>
<defs>
<linearGradient id="paint0_linear_44_467" x1="19.5" y1="34.5312" x2="19.5" y2="36.9688" gradientUnits="userSpaceOnUse">
<stop stop-color="#9D00C6"/>
<stop offset="1" stop-color="#00FFED"/>
</linearGradient>
<linearGradient id="paint1_linear_44_467" x1="19.4993" y1="3.24854" x2="19.4993" y2="29.2493" gradientUnits="userSpaceOnUse">
<stop stop-color="#9D00C6"/>
<stop offset="1" stop-color="#00FFED"/>
</linearGradient>
</defs>
</svg>
