<svg width="24" height="24" viewBox="0 0 24 24" fill="none" xmlns="http://www.w3.org/2000/svg">
<path fill-rule="evenodd" clip-rule="evenodd" d="M11.3481 2.06416C11.5378 2.16774 11.6588 2.36943 11.6588 2.59511V7.65171C11.6589 7.74288 11.6383 7.83288 11.5984 7.91487C11.5586 7.99687 11.5005 8.06869 11.4288 8.12488L9.77157 9.40702C10.5511 9.94888 11.6588 10.7164 11.6588 11.8132C11.6588 12.9743 10.6492 13.7931 9.74322 14.3012L11.4113 15.4852C11.5672 15.5997 11.6588 15.7796 11.6588 15.9758V21.0324C11.6592 21.1391 11.631 21.2439 11.5774 21.3361C11.5237 21.4282 11.4464 21.5044 11.3535 21.5568C11.2611 21.6068 11.1566 21.6301 11.0516 21.6241C10.9467 21.6182 10.8455 21.5832 10.7593 21.523L4.40861 17.0661C3.98521 16.7808 3.63634 16.3982 3.39126 15.9503C3.14618 15.5024 3.01201 15.0024 3 14.492C3 13.7593 3.32272 12.8762 4.40207 11.8361C3.57674 11.1329 3 10.2781 3 9.13555C3 7.76728 4.58741 6.59526 5.5621 5.96618L10.7408 2.11649C10.827 2.05226 10.9294 2.01333 11.0364 2.00408C11.1435 1.99484 11.2511 2.01564 11.347 2.06416M5.44871 7.5078C5.02678 7.85341 4.15567 8.50647 4.15567 9.13555C4.15567 10.0121 4.68662 10.5551 5.31025 11.0686L7.04157 9.93143L8.19615 10.6248L6.27948 11.8078L8.65733 13.5216C9.29294 13.2513 10.5053 12.656 10.5053 11.8132C10.5053 10.9192 9.0847 10.3654 8.45563 9.93143C7.45696 9.23912 6.09523 8.5926 5.45416 7.5078H5.44871ZM5.33314 12.5698C4.28214 13.5282 4.15567 14.1682 4.15567 14.492C4.15567 14.9128 4.36936 15.6062 5.04968 16.0794H5.05622L5.54683 16.4261C5.70347 15.9985 5.9491 15.6091 6.26749 15.2836C6.58587 14.958 6.96975 14.7038 7.39372 14.5378L8.24739 15.3805C7.55508 15.6923 6.83987 16.3214 6.70686 16.6223C6.6291 16.7919 6.59356 16.9778 6.60329 17.1642L10.5053 19.9062V16.2865C8.77523 15.0557 7.05115 13.8164 5.33314 12.5688M6.39505 6.81331C6.78754 7.65607 8.02825 8.21101 8.75545 8.70708L10.5053 7.3508V3.76169L6.39505 6.81985V6.81331ZM13.1197 2.06852C13.2111 2.01898 13.3144 1.99552 13.4182 2.00071C13.5221 2.0059 13.6225 2.03954 13.7085 2.09796L19.7703 6.26491C20.7799 6.95177 21.4722 7.84687 21.4722 9.13446C21.4722 10.1909 20.8082 11.0795 20.0875 11.7663C20.7221 12.2853 21.4722 13.151 21.4722 14.4909C21.4722 16.1644 20.2544 16.9668 19.4519 17.4923L19.1924 17.6602C18.7531 17.9655 15.3537 20.3499 13.7194 21.5219C13.6332 21.5821 13.532 21.6171 13.4271 21.6231C13.3221 21.629 13.2176 21.6057 13.1252 21.5557C13.031 21.5042 12.9524 21.4284 12.8976 21.3361C12.8428 21.2439 12.8137 21.1386 12.8134 21.0313V15.9747C12.8134 15.7894 12.9006 15.6106 13.0445 15.5015L14.6668 14.2477C13.7663 13.6884 12.8134 13.0485 12.8134 11.8121C12.8134 10.7273 13.9276 9.88455 14.6897 9.31326L13.062 8.13578C12.9851 8.08031 12.9226 8.00742 12.8793 7.92308C12.8361 7.83875 12.8135 7.74538 12.8134 7.65062V2.59511C12.8117 2.4888 12.8395 2.3841 12.8935 2.29253C12.9476 2.20097 13.0259 2.1261 13.1197 2.07615V2.06852ZM15.6938 10.035C15.2501 10.3577 13.968 11.1198 13.968 11.8121C13.968 12.7715 15.3766 13.3014 15.9947 13.683L16.0165 13.6939C17.1024 14.4385 18.4587 15.0742 19.1695 16.2516C19.839 15.7828 20.3176 15.3456 20.3176 14.4909C20.3176 13.55 19.7234 12.9558 19.175 12.5459L17.4317 13.8967L16.2771 13.3014L18.1818 11.8296L15.7004 10.0405L15.6938 10.035ZM19.1281 11.062L13.968 7.33881V3.7039L17.6912 6.26055C18.2973 6.67593 16.5137 8.04965 16.2771 8.2459L17.4317 8.84118C18.0782 8.30368 18.5634 7.94063 18.8577 7.06297L19.1347 7.25377C19.8106 7.71495 20.3176 8.25244 20.3176 9.13555C20.3176 9.92053 19.6602 10.578 19.1292 11.0631M18.2058 16.9101C17.6868 15.9867 16.5486 15.4906 15.7243 14.9193L13.969 16.2756V19.8953L18.2123 16.9101H18.2058Z" fill="#47C8FC"/>
</svg>
